<svg width="463" height="421" viewBox="0 0 463 421" fill="none" xmlns="http://www.w3.org/2000/svg">
<path id="frame" d="M298.632 200.456L2.63246 299.123C1.33739 299.554 0 298.59 0 297.225V101.442C0 100.581 0.550867 99.8164 1.36755 99.5442L297.368 0.877485C298.663 0.445798 300 1.40974 300 2.77486V198.558C300 199.419 299.449 200.184 298.632 200.456Z" fill="#A3A3A3"/>
<path id="display" d="M295.318 196.229L5.31818 293.558C4.67027 293.775 4 293.293 4 292.61V104.719C4 104.29 4.27448 103.908 4.68182 103.771L294.682 6.4424C295.33 6.22495 296 6.707 296 7.39042V195.281C296 195.71 295.726 196.092 295.318 196.229Z" fill="white"/>
<path id="keyboard-frame" d="M6.6937 303.769L301.141 205.62C302.314 205.229 303.601 205.402 304.629 206.09L459.719 309.806C461.081 310.716 460.83 312.789 459.29 313.348L165.494 420.094C163.934 420.661 162.195 420.416 160.852 419.442L6.15222 307.285C4.83408 306.33 5.14914 304.284 6.6937 303.769Z" fill="#A3A3A3"/>
<path id="a" d="M61.6566 300.162C61.9619 300.06 62.2975 300.112 62.5584 300.3L73.4183 308.143C74.0789 308.62 73.9221 309.645 73.149 309.903L58.3434 314.838C58.0381 314.94 57.7025 314.888 57.4416 314.7L46.5817 306.857C45.9211 306.38 46.0779 305.355 46.851 305.097L61.6566 300.162Z" fill="black"/>
<path id="d" d="M61.6566 300.162C61.9619 300.06 62.2975 300.112 62.5584 300.3L73.4183 308.143C74.0789 308.62 73.9221 309.645 73.149 309.903L58.3434 314.838C58.0381 314.94 57.7025 314.888 57.4416 314.7L46.5817 306.857C45.9211 306.38 46.0779 305.355 46.851 305.097L61.6566 300.162Z" fill="black"/>
<path id="d" d="M61.6566 300.162C61.9619 300.06 62.2975 300.112 62.5584 300.3L73.4183 308.143C74.0789 308.62 73.9221 309.645 73.149 309.903L58.3434 314.838C58.0381 314.94 57.7025 314.888 57.4416 314.7L46.5817 306.857C45.9211 306.38 46.0779 305.355 46.851 305.097L61.6566 300.162Z" fill="black"/>
<path id="Backquote" d="M61.6566 300.162C61.9619 300.06 62.2975 300.112 62.5584 300.3L73.4183 308.143C74.0789 308.62 73.9221 309.645 73.149 309.903L58.3434 314.838C58.0381 314.94 57.7025 314.888 57.4416 314.7L46.5817 306.857C45.9211 306.38 46.0779 305.355 46.851 305.097L61.6566 300.162Z" fill="black"/>
<path id="Digit1" d="M79.6566 294.162C79.9619 294.06 80.2975 294.112 80.5584 294.3L91.4183 302.143C92.0789 302.62 91.9221 303.645 91.149 303.903L76.3434 308.838C76.0381 308.94 75.7025 308.888 75.4416 308.7L64.5817 300.857C63.9211 300.38 64.0779 299.355 64.851 299.097L79.6566 294.162Z" fill="black"/>
<path id="Digit2" d="M97.6566 288.162C97.9619 288.06 98.2975 288.112 98.5584 288.3L109.418 296.143C110.079 296.62 109.922 297.645 109.149 297.903L94.3434 302.838C94.0381 302.94 93.7025 302.888 93.4416 302.7L82.5817 294.857C81.9211 294.38 82.0779 293.355 82.851 293.097L97.6566 288.162Z" fill="black"/>
<path id="Digit3" d="M115.657 282.162C115.962 282.06 116.297 282.112 116.558 282.3L127.418 290.143C128.079 290.62 127.922 291.645 127.149 291.903L112.343 296.838C112.038 296.94 111.703 296.888 111.442 296.7L100.582 288.857C99.9211 288.38 100.078 287.355 100.851 287.097L115.657 282.162Z" fill="black"/>
<path id="Digit4" d="M133.657 276.162C133.962 276.06 134.297 276.112 134.558 276.3L145.418 284.143C146.079 284.62 145.922 285.645 145.149 285.903L130.343 290.838C130.038 290.94 129.703 290.888 129.442 290.7L118.582 282.857C117.921 282.38 118.078 281.355 118.851 281.097L133.657 276.162Z" fill="black"/>
<path id="Digit5" d="M151.657 270.162C151.962 270.06 152.297 270.112 152.558 270.3L163.418 278.143C164.079 278.62 163.922 279.645 163.149 279.903L148.343 284.838C148.038 284.94 147.703 284.888 147.442 284.7L136.582 276.857C135.921 276.38 136.078 275.355 136.851 275.097L151.657 270.162Z" fill="black"/>
<path id="Digit6" d="M169.657 264.162C169.962 264.06 170.297 264.112 170.558 264.3L181.418 272.143C182.079 272.62 181.922 273.645 181.149 273.903L166.343 278.838C166.038 278.94 165.703 278.888 165.442 278.7L154.582 270.857C153.921 270.38 154.078 269.355 154.851 269.097L169.657 264.162Z" fill="black"/>
<path id="Digit7" d="M187.657 258.162C187.962 258.06 188.297 258.112 188.558 258.3L199.418 266.143C200.079 266.62 199.922 267.645 199.149 267.903L184.343 272.838C184.038 272.94 183.703 272.888 183.442 272.7L172.582 264.857C171.921 264.38 172.078 263.355 172.851 263.097L187.657 258.162Z" fill="black"/>
<path id="Digit8" d="M205.657 252.162C205.962 252.06 206.297 252.112 206.558 252.3L217.418 260.143C218.079 260.62 217.922 261.645 217.149 261.903L202.343 266.838C202.038 266.94 201.703 266.888 201.442 266.7L190.582 258.857C189.921 258.38 190.078 257.355 190.851 257.097L205.657 252.162Z" fill="black"/>
<path id="Digit9" d="M223.657 246.162C223.962 246.06 224.297 246.112 224.558 246.3L235.418 254.143C236.079 254.62 235.922 255.645 235.149 255.903L220.343 260.838C220.038 260.94 219.703 260.888 219.442 260.7L208.582 252.857C207.921 252.38 208.078 251.355 208.851 251.097L223.657 246.162Z" fill="black"/>
<path id="Digit0" d="M241.657 240.162C241.962 240.06 242.297 240.112 242.558 240.3L253.418 248.143C254.079 248.62 253.922 249.645 253.149 249.903L238.343 254.838C238.038 254.94 237.703 254.888 237.442 254.7L226.582 246.857C225.921 246.38 226.078 245.355 226.851 245.097L241.657 240.162Z" fill="black"/>
<path id="Minus" d="M259.657 234.162C259.962 234.06 260.297 234.112 260.558 234.3L271.418 242.143C272.079 242.62 271.922 243.645 271.149 243.903L256.343 248.838C256.038 248.94 255.703 248.888 255.442 248.7L244.582 240.857C243.921 240.38 244.078 239.355 244.851 239.097L259.657 234.162Z" fill="black"/>
<path id="Equal" d="M277.657 228.162C277.962 228.06 278.297 228.112 278.558 228.3L289.418 236.143C290.079 236.62 289.922 237.645 289.149 237.903L274.343 242.838C274.038 242.94 273.703 242.888 273.442 242.7L262.582 234.857C261.921 234.38 262.078 233.355 262.851 233.097L277.657 228.162Z" fill="black"/>
<path id="Backspace" d="M300.507 220.173C300.816 220.065 301.158 220.114 301.423 220.306L312.305 228.165C312.96 228.638 312.813 229.652 312.051 229.919L292.35 236.827C292.041 236.935 291.699 236.886 291.434 236.694L280.552 228.835C279.897 228.362 280.044 227.348 280.807 227.081L300.507 220.173Z" fill="black"/>
<path id="Tab" d="M82.5071 309.173C82.8159 309.065 83.1582 309.114 83.4235 309.306L94.3052 317.165C94.96 317.638 94.8129 318.652 94.0506 318.919L74.3501 325.827C74.0412 325.935 73.699 325.886 73.4337 325.694L62.552 317.835C61.8971 317.362 62.0443 316.348 62.8066 316.081L82.5071 309.173Z" fill="black"/>
<path id="KeyQ" d="M100.657 303.162C100.962 303.06 101.297 303.112 101.558 303.3L112.418 311.143C113.079 311.62 112.922 312.645 112.149 312.903L97.3434 317.838C97.0381 317.94 96.7025 317.888 96.4416 317.7L85.5817 309.857C84.9211 309.38 85.0779 308.355 85.851 308.097L100.657 303.162Z" fill="black"/>
<path id="KeyW" d="M118.657 297.162C118.962 297.06 119.297 297.112 119.558 297.3L130.418 305.143C131.079 305.62 130.922 306.645 130.149 306.903L115.343 311.838C115.038 311.94 114.703 311.888 114.442 311.7L103.582 303.857C102.921 303.38 103.078 302.355 103.851 302.097L118.657 297.162Z" fill="black"/>
<path id="KeyE" d="M136.657 291.162C136.962 291.06 137.297 291.112 137.558 291.3L148.418 299.143C149.079 299.62 148.922 300.645 148.149 300.903L133.343 305.838C133.038 305.94 132.703 305.888 132.442 305.7L121.582 297.857C120.921 297.38 121.078 296.355 121.851 296.097L136.657 291.162Z" fill="black"/>
<path id="KeyR" d="M154.657 285.162C154.962 285.06 155.297 285.112 155.558 285.3L166.418 293.143C167.079 293.62 166.922 294.645 166.149 294.903L151.343 299.838C151.038 299.94 150.703 299.888 150.442 299.7L139.582 291.857C138.921 291.38 139.078 290.355 139.851 290.097L154.657 285.162Z" fill="black"/>
<path id="KeyT" d="M172.657 279.162C172.962 279.06 173.297 279.112 173.558 279.3L184.418 287.143C185.079 287.62 184.922 288.645 184.149 288.903L169.343 293.838C169.038 293.94 168.703 293.888 168.442 293.7L157.582 285.857C156.921 285.38 157.078 284.355 157.851 284.097L172.657 279.162Z" fill="black"/>
<path id="KeyY" d="M190.657 273.162C190.962 273.06 191.297 273.112 191.558 273.3L202.418 281.143C203.079 281.62 202.922 282.645 202.149 282.903L187.343 287.838C187.038 287.94 186.703 287.888 186.442 287.7L175.582 279.857C174.921 279.38 175.078 278.355 175.851 278.097L190.657 273.162Z" fill="black"/>
<path id="KeyU" d="M208.657 267.162C208.962 267.06 209.297 267.112 209.558 267.3L220.418 275.143C221.079 275.62 220.922 276.645 220.149 276.903L205.343 281.838C205.038 281.94 204.703 281.888 204.442 281.7L193.582 273.857C192.921 273.38 193.078 272.355 193.851 272.097L208.657 267.162Z" fill="black"/>
<path id="KeyI" d="M226.657 261.162C226.962 261.06 227.297 261.112 227.558 261.3L238.418 269.143C239.079 269.62 238.922 270.645 238.149 270.903L223.343 275.838C223.038 275.94 222.703 275.888 222.442 275.7L211.582 267.857C210.921 267.38 211.078 266.355 211.851 266.097L226.657 261.162Z" fill="black"/>
<path id="KeyO" d="M244.657 255.162C244.962 255.06 245.297 255.112 245.558 255.3L256.418 263.143C257.079 263.62 256.922 264.645 256.149 264.903L241.343 269.838C241.038 269.94 240.703 269.888 240.442 269.7L229.582 261.857C228.921 261.38 229.078 260.355 229.851 260.097L244.657 255.162Z" fill="black"/>
<path id="KeyP" d="M262.657 249.162C262.962 249.06 263.297 249.112 263.558 249.3L274.418 257.143C275.079 257.62 274.922 258.645 274.149 258.903L259.343 263.838C259.038 263.94 258.703 263.888 258.442 263.7L247.582 255.857C246.921 255.38 247.078 254.355 247.851 254.097L262.657 249.162Z" fill="black"/>
<path id="BracketLeft" d="M280.657 243.162C280.962 243.06 281.297 243.112 281.558 243.3L292.418 251.143C293.079 251.62 292.922 252.645 292.149 252.903L277.343 257.838C277.038 257.94 276.703 257.888 276.442 257.7L265.582 249.857C264.921 249.38 265.078 248.355 265.851 248.097L280.657 243.162Z" fill="black"/>
<path id="BracketRight" d="M298.657 237.162C298.962 237.06 299.297 237.112 299.558 237.3L310.418 245.143C311.079 245.62 310.922 246.645 310.149 246.903L295.343 251.838C295.038 251.94 294.703 251.888 294.442 251.7L283.582 243.857C282.921 243.38 283.078 242.355 283.851 242.097L298.657 237.162Z" fill="black"/>
<path id="Backslash" d="M316.657 231.162C316.962 231.06 317.297 231.112 317.558 231.3L328.418 239.143C329.079 239.62 328.922 240.645 328.149 240.903L313.343 245.838C313.038 245.94 312.703 245.888 312.442 245.7L301.582 237.857C300.921 237.38 301.078 236.355 301.851 236.097L316.657 231.162Z" fill="black"/>
<path id="CapsLock" d="M105.505 317.177C105.815 317.066 106.159 317.115 106.426 317.308L117.316 325.173C117.969 325.644 117.825 326.654 117.067 326.925L89.3525 336.823C89.0424 336.934 88.6977 336.885 88.4307 336.692L77.5411 328.827C76.8884 328.356 77.032 327.346 77.7903 327.075L105.505 317.177Z" fill="black"/>
<path id="KeyA" d="M123.657 311.162C123.962 311.06 124.297 311.112 124.558 311.3L135.418 319.143C136.079 319.62 135.922 320.645 135.149 320.903L120.343 325.838C120.038 325.94 119.703 325.888 119.442 325.7L108.582 317.857C107.921 317.38 108.078 316.355 108.851 316.097L123.657 311.162Z" fill="black"/>
<path id="KeyS" d="M141.657 305.162C141.962 305.06 142.297 305.112 142.558 305.3L153.418 313.143C154.079 313.62 153.922 314.645 153.149 314.903L138.343 319.838C138.038 319.94 137.703 319.888 137.442 319.7L126.582 311.857C125.921 311.38 126.078 310.355 126.851 310.097L141.657 305.162Z" fill="black"/>
<path id="KeyD" d="M159.657 299.162C159.962 299.06 160.297 299.112 160.558 299.3L171.418 307.143C172.079 307.62 171.922 308.645 171.149 308.903L156.343 313.838C156.038 313.94 155.703 313.888 155.442 313.7L144.582 305.857C143.921 305.38 144.078 304.355 144.851 304.097L159.657 299.162Z" fill="black"/>
<path id="KeyF" d="M177.657 293.162C177.962 293.06 178.297 293.112 178.558 293.3L189.418 301.143C190.079 301.62 189.922 302.645 189.149 302.903L174.343 307.838C174.038 307.94 173.703 307.888 173.442 307.7L162.582 299.857C161.921 299.38 162.078 298.355 162.851 298.097L177.657 293.162Z" fill="black"/>
<path id="KeyG" d="M195.657 287.162C195.962 287.06 196.297 287.112 196.558 287.3L207.418 295.143C208.079 295.62 207.922 296.645 207.149 296.903L192.343 301.838C192.038 301.94 191.703 301.888 191.442 301.7L180.582 293.857C179.921 293.38 180.078 292.355 180.851 292.097L195.657 287.162Z" fill="black"/>
<path id="KeyH" d="M213.657 281.162C213.962 281.06 214.297 281.112 214.558 281.3L225.418 289.143C226.079 289.62 225.922 290.645 225.149 290.903L210.343 295.838C210.038 295.94 209.703 295.888 209.442 295.7L198.582 287.857C197.921 287.38 198.078 286.355 198.851 286.097L213.657 281.162Z" fill="black"/>
<path id="KeyJ" d="M231.657 275.162C231.962 275.06 232.297 275.112 232.558 275.3L243.418 283.143C244.079 283.62 243.922 284.645 243.149 284.903L228.343 289.838C228.038 289.94 227.703 289.888 227.442 289.7L216.582 281.857C215.921 281.38 216.078 280.355 216.851 280.097L231.657 275.162Z" fill="black"/>
<path id="KeyK" d="M249.657 269.162C249.962 269.06 250.297 269.112 250.558 269.3L261.418 277.143C262.079 277.62 261.922 278.645 261.149 278.903L246.343 283.838C246.038 283.94 245.703 283.888 245.442 283.7L234.582 275.857C233.921 275.38 234.078 274.355 234.851 274.097L249.657 269.162Z" fill="black"/>
<path id="KeyL" d="M267.657 263.162C267.962 263.06 268.297 263.112 268.558 263.3L279.418 271.143C280.079 271.62 279.922 272.645 279.149 272.903L264.343 277.838C264.038 277.94 263.703 277.888 263.442 277.7L252.582 269.857C251.921 269.38 252.078 268.355 252.851 268.097L267.657 263.162Z" fill="black"/>
<path id="Semicolon" d="M285.657 257.162C285.962 257.06 286.297 257.112 286.558 257.3L297.418 265.143C298.079 265.62 297.922 266.645 297.149 266.903L282.343 271.838C282.038 271.94 281.703 271.888 281.442 271.7L270.582 263.857C269.921 263.38 270.078 262.355 270.851 262.097L285.657 257.162Z" fill="black"/>
<path id="Quote" d="M303.657 251.162C303.962 251.06 304.297 251.112 304.558 251.3L315.418 259.143C316.079 259.62 315.922 260.645 315.149 260.903L300.343 265.838C300.038 265.94 299.703 265.888 299.442 265.7L288.582 257.857C287.921 257.38 288.078 256.355 288.851 256.097L303.657 251.162Z" fill="black"/>
<path id="Enter" d="M330.656 242.163C330.962 242.061 331.298 242.112 331.559 242.301L342.421 250.146C343.081 250.622 342.926 251.646 342.154 251.905L318.487 259.837C318.181 259.939 317.845 259.888 317.584 259.699L306.721 251.854C306.061 251.378 306.217 250.354 306.989 250.095L330.656 242.163Z" fill="black"/>
<path id="ShiftLeft" d="M128.508 325.171C128.816 325.064 129.158 325.114 129.422 325.305L140.278 333.145C140.938 333.622 140.782 334.646 140.009 334.904L122.857 340.643L104.354 347.321C104.043 347.433 103.697 347.384 103.429 347.191L92.5569 339.339C91.9011 338.865 92.0498 337.849 92.8139 337.584L128.508 325.171Z" fill="black"/>
<path id="KeyZ" d="M146.657 319.162C146.962 319.06 147.297 319.112 147.558 319.3L158.418 327.143C159.079 327.62 158.922 328.645 158.149 328.903L143.343 333.838C143.038 333.94 142.703 333.888 142.442 333.7L131.582 325.857C130.921 325.38 131.078 324.355 131.851 324.097L146.657 319.162Z" fill="black"/>
<path id="KeyX" d="M164.657 313.162C164.962 313.06 165.297 313.112 165.558 313.3L176.418 321.143C177.079 321.62 176.922 322.645 176.149 322.903L161.343 327.838C161.038 327.94 160.703 327.888 160.442 327.7L149.582 319.857C148.921 319.38 149.078 318.355 149.851 318.097L164.657 313.162Z" fill="black"/>
<path id="KeyC" d="M182.657 307.162C182.962 307.06 183.297 307.112 183.558 307.3L194.418 315.143C195.079 315.62 194.922 316.645 194.149 316.903L179.343 321.838C179.038 321.94 178.703 321.888 178.442 321.7L167.582 313.857C166.921 313.38 167.078 312.355 167.851 312.097L182.657 307.162Z" fill="black"/>
<path id="KeyV" d="M200.657 301.162C200.962 301.06 201.297 301.112 201.558 301.3L212.418 309.143C213.079 309.62 212.922 310.645 212.149 310.903L197.343 315.838C197.038 315.94 196.703 315.888 196.442 315.7L185.582 307.857C184.921 307.38 185.078 306.355 185.851 306.097L200.657 301.162Z" fill="black"/>
<path id="KeyB" d="M218.657 295.162C218.962 295.06 219.297 295.112 219.558 295.3L230.418 303.143C231.079 303.62 230.922 304.645 230.149 304.903L215.343 309.838C215.038 309.94 214.703 309.888 214.442 309.7L203.582 301.857C202.921 301.38 203.078 300.355 203.851 300.097L218.657 295.162Z" fill="black"/>
<path id="KeyN" d="M236.657 289.162C236.962 289.06 237.297 289.112 237.558 289.3L248.418 297.143C249.079 297.62 248.922 298.645 248.149 298.903L233.343 303.838C233.038 303.94 232.703 303.888 232.442 303.7L221.582 295.857C220.921 295.38 221.078 294.355 221.851 294.097L236.657 289.162Z" fill="black"/>
<path id="KeyM" d="M254.657 283.162C254.962 283.06 255.297 283.112 255.558 283.3L266.418 291.143C267.079 291.62 266.922 292.645 266.149 292.903L251.343 297.838C251.038 297.94 250.703 297.888 250.442 297.7L239.582 289.857C238.921 289.38 239.078 288.355 239.851 288.097L254.657 283.162Z" fill="black"/>
<path id="Comma" d="M272.657 277.162C272.962 277.06 273.297 277.112 273.558 277.3L284.418 285.143C285.079 285.62 284.922 286.645 284.149 286.903L269.343 291.838C269.038 291.94 268.703 291.888 268.442 291.7L257.582 283.857C256.921 283.38 257.078 282.355 257.851 282.097L272.657 277.162Z" fill="black"/>
<path id="Period" d="M290.657 271.162C290.962 271.06 291.297 271.112 291.558 271.3L302.418 279.143C303.079 279.62 302.922 280.645 302.149 280.903L287.343 285.838C287.038 285.94 286.703 285.888 286.442 285.7L275.582 277.857C274.921 277.38 275.078 276.355 275.851 276.097L290.657 271.162Z" fill="black"/>
<path id="Slash" d="M308.657 265.162C308.962 265.06 309.297 265.112 309.558 265.3L320.418 273.143C321.079 273.62 320.922 274.645 320.149 274.903L305.343 279.838C305.038 279.94 304.703 279.888 304.442 279.7L293.582 271.857C292.921 271.38 293.078 270.355 293.851 270.097L308.657 265.162Z" fill="black"/>
<path id="ShiftRight" d="M345.651 252.172C345.959 252.064 346.301 252.114 346.565 252.305L357.42 260.145C358.081 260.622 357.925 261.646 357.152 261.904L342.857 266.687L324.354 273.365C324.043 273.477 323.697 273.428 323.429 273.235L312.555 265.381C311.9 264.908 312.048 263.893 312.811 263.627L345.651 252.172Z" fill="black"/>
<path id="extra" d="M121.657 343.162C121.962 343.06 122.297 343.112 122.558 343.3L133.418 351.143C134.079 351.62 133.922 352.645 133.149 352.903L118.343 357.838C118.038 357.94 117.703 357.888 117.442 357.7L106.582 349.857C105.921 349.38 106.078 348.355 106.851 348.097L121.657 343.162Z" fill="black"/>
<path id="ControlLeft" d="M139.657 337.162C139.962 337.06 140.297 337.112 140.558 337.3L151.418 345.143C152.079 345.62 151.922 346.645 151.149 346.903L136.343 351.838C136.038 351.94 135.703 351.888 135.442 351.7L124.582 343.857C123.921 343.38 124.078 342.355 124.851 342.097L139.657 337.162Z" fill="black"/>
<path id="AltLeft" d="M157.657 331.162C157.962 331.06 158.297 331.112 158.558 331.3L169.418 339.143C170.079 339.62 169.922 340.645 169.149 340.903L154.343 345.838C154.038 345.94 153.703 345.888 153.442 345.7L142.582 337.857C141.921 337.38 142.078 336.355 142.851 336.097L157.657 331.162Z" fill="black"/>
<path id="OSLeft" d="M175.657 325.162C175.962 325.06 176.297 325.112 176.558 325.3L187.418 333.143C188.079 333.62 187.922 334.645 187.149 334.903L172.343 339.838C172.038 339.94 171.703 339.888 171.442 339.7L160.582 331.857C159.921 331.38 160.078 330.355 160.851 330.097L175.657 325.162Z" fill="black"/>
<path id="Space" d="M282.87 289.164C283.176 289.061 283.512 289.112 283.774 289.301L294.637 297.146C295.297 297.623 295.141 298.646 294.37 298.905L190.344 333.836C190.039 333.939 189.702 333.888 189.441 333.699L178.577 325.853C177.918 325.377 178.073 324.354 178.845 324.095L282.87 289.164Z" fill="black"/>
<path id="ControlLeft" d="M306.66 281.371C306.964 281.272 307.296 281.325 307.554 281.511L318.402 289.346C319.066 289.825 318.903 290.855 318.125 291.108L297.34 297.844C297.036 297.942 296.704 297.89 296.446 297.703L285.598 289.868C284.934 289.389 285.097 288.359 285.875 288.106L306.66 281.371Z" fill="black"/>
<path id="ArrowLeft" d="M324.657 275.162C324.962 275.06 325.297 275.112 325.558 275.3L336.418 283.143C337.079 283.62 336.922 284.645 336.149 284.903L321.343 289.838C321.038 289.94 320.703 289.888 320.442 289.7L309.582 281.857C308.921 281.38 309.078 280.355 309.851 280.097L324.657 275.162Z" fill="black"/>
<path id="ArrowUp" d="M342.679 269.155C342.972 269.057 343.293 269.1 343.55 269.271L347.442 271.866C348.134 272.327 347.993 273.383 347.203 273.647L332.464 278.56C332.171 278.657 331.85 278.614 331.593 278.443L327.701 275.848C327.009 275.387 327.15 274.331 327.94 274.068L342.679 269.155Z" fill="black"/>
<path id="ArrowDown" d="M349.012 273.663C349.318 273.561 349.655 273.613 349.916 273.803L354.111 276.857C354.769 277.336 354.61 278.357 353.839 278.614L339.027 283.551C338.72 283.654 338.383 283.601 338.122 283.411L333.927 280.357C333.27 279.879 333.428 278.857 334.2 278.6L349.012 273.663Z" fill="black"/>
<path id="ArrowRight" d="M360.657 263.162C360.962 263.06 361.297 263.112 361.558 263.3L372.418 271.143C373.079 271.62 372.922 272.645 372.149 272.903L357.343 277.838C357.038 277.94 356.703 277.888 356.442 277.7L345.582 269.857C344.921 269.38 345.078 268.355 345.851 268.097L360.657 263.162Z" fill="black"/>
</svg>
